<?xml version="1.0" standalone="no"?><!DOCTYPE svg PUBLIC "-//W3C//DTD SVG 1.1//EN" "http://www.w3.org/Graphics/SVG/1.1/DTD/svg11.dtd"><svg xmlns="http://www.w3.org/2000/svg" version="1.1" width="1597.492" height="978.963" xmlns:xlink="http://www.w3.org/1999/xlink" xlink="http://www.w3.org/1999/xlink" style="position:relative;" viewBox="-12 -12 1597.492 978.963"><defs><filter id="65c43504-3807-4868-a9a4-b4a944bb77a2" x="-0.5" y="-0.5" width="2" height="2"><feFlood flood-color="#000" flood-opacity="0.6" result="flood"/><feComposite in="flood" in2="SourceAlpha" operator="in" result="mask"/><feGaussianBlur in="mask" stdDeviation="2"/><feOffset dx="1.25" dy="1.25" result="oEffect0"/><feMerge><feMergeNode in="oEffect0"/><feMergeNode in="SourceGraphic"/></feMerge></filter><filter id="c80acb8e-f31e-4b13-903c-ed8f535818e1" x="-0.5" y="-0.5" width="2" height="2"><feFlood flood-color="#000" flood-opacity="0.6" result="flood"/><feComposite in="flood" in2="SourceAlpha" operator="in" result="mask"/><feGaussianBlur in="mask" stdDeviation="2"/><feOffset dx="0.5" dy="0.5" result="oEffect0"/><feMerge><feMergeNode in="oEffect0"/><feMergeNode in="SourceGraphic"/></feMerge></filter><filter id="34767a46-1eaa-4de2-9211-2def8e05ed91" x="-0.5" y="-0.5" width="2" height="2"><feFlood flood-color="#000" flood-opacity="0.6" result="flood"/><feComposite in="flood" in2="SourceAlpha" operator="in" result="mask"/><feGaussianBlur in="mask" stdDeviation="2"/><feOffset dx="0.8583333333333333" dy="0.8583333333333333" result="oEffect0"/><feMerge><feMergeNode in="oEffect0"/><feMergeNode in="SourceGraphic"/></feMerge></filter></defs><g><g width="19" height="19" transform="scale(1,1) translate(132.167,57.167)"><g width="19" height="19" transform="scale(1,1) translate(0,0)" stroke="#7F7F7F" stroke-width="1" stroke-dasharray="none" fill="#000000" fill-opacity="1" stroke-opacity="1" filter="url(#c80acb8e-f31e-4b13-903c-ed8f535818e1)"><ellipse rx="9.5" ry="9.5" cx="9.5" cy="9.5"/></g></g><g width="216.833" height="66.625" transform="scale(1,1) translate(267.167,191.708)"><g fill="#7F7F7F" stroke="#7F7F7F" stroke-opacity="1" transform="scale(1,1) translate(0,0)"><path fill="none" stroke-width="2" stroke-dasharray="none" d="M0,0 A507.695,507.695 0 0,1 216.833,66.625"/><g><g stroke-dasharray="none"><path d="M209.416,55.445L216.833,66.625L203.439,65.851" stroke-width="1" fill="none"/></g></g></g><g stroke-width="0" stroke-dasharray="none" fill="#FFFFFF" opacity="1" width="67.128" height="33.25" transform="scale(1,1) translate(78.621,4.422)"><rect width="67.128" height="33.25"/></g><g width="100" height="66.625" transform="scale(1,1) translate(62.185,5.422)"><text width="100" height="31.249998092651367" transform="scale(1,1) translate(0,0)" xml:space="preserve"><tspan xml:space="preserve" text-rendering="optimizeSpeed" font-size="13.88888888888889" font-weight="normal" font-style="normal" fill="#000000" x="17.436" text-anchor="start" y="12.5" textLength="60.9609489440918" style="font-family: Arial, Helvetica Neue, Helvetica, sans-serif;">To college</tspan><tspan xml:space="preserve" text-rendering="optimizeSpeed" font-size="13.88888888888889" font-weight="normal" font-style="normal" fill="#000000" x="25.125" text-anchor="start" y="28.125" textLength="49.749122619628906" style="font-family: Arial, Helvetica Neue, Helvetica, sans-serif;">Website</tspan></text></g></g><g width="66.503" height="87.168" transform="scale(1,1) translate(150.164,70.915)"><g fill="#7F7F7F" stroke="#7F7F7F" stroke-opacity="1" transform="scale(1,1) translate(0,0)"><path fill="none" stroke-width="2" stroke-dasharray="none" d="M0,0 A118.055,118.055 0 0,1 66.503,87.168"/><g><g stroke-dasharray="none"><path d="M70.293,74.298L66.503,87.168L58.481,76.414" stroke-width="1" fill="none"/></g></g></g></g><g width="41.667" height="33.333" transform="scale(1,1) translate(995.833,362.5)"><g transform="scale(1,1) translate(0,0)" stroke="#7F7F7F" fill="#CDC29C" fill-opacity="1" stroke-opacity="1" filter="url(#34767a46-1eaa-4de2-9211-2def8e05ed91)"><path d="M20.833,0 L41.667,16.667 L20.833,33.333 L0,16.667 L20.833,0 z" stroke-width="1" stroke-dasharray="none"/></g></g><g width="760.875" height="218.125" transform="scale(1,1) translate(276.625,161.042)"><g fill="#7F7F7F" stroke="#7F7F7F" stroke-opacity="1" transform="scale(1,1) translate(0,0)"><path fill="none" stroke-width="2" stroke-dasharray="none" d="M0,0 A508.858,508.858 0 0,1 760.875,218.125"/><g><g stroke-dasharray="none"><path d="M12.733,-4.227L0,0L4.258,-12.723" stroke-width="1" fill="none"/></g></g></g><g stroke-width="0" stroke-dasharray="none" fill="#FFFFFF" opacity="1" width="40.542" height="33.25" transform="scale(1,1) translate(412.251,-89.244)"><rect width="40.542" height="33.25"/></g><g width="190" height="310.4476104023624" transform="scale(1,1) translate(337.521,-88.244)"><text width="190" height="31.249998092651367" transform="scale(1,1) translate(0,0)" xml:space="preserve"><tspan xml:space="preserve" text-rendering="optimizeSpeed" font-size="13.88888888888889" font-weight="normal" font-style="normal" fill="#000000" x="75.729" text-anchor="start" y="12.5" textLength="38.541664123535156" style="font-family: Arial, Helvetica Neue, Helvetica, sans-serif;">invalid</tspan><tspan xml:space="preserve" text-rendering="optimizeSpeed" font-size="13.88888888888889" font-weight="normal" font-style="normal" fill="#000000" x="92.917" text-anchor="start" y="28.125" textLength="4.166666507720947" style="font-family: Arial, Helvetica Neue, Helvetica, sans-serif;">[</tspan></text></g></g><g width="512.868" height="267.035" transform="scale(1,1) translate(193.566,628.983)"><g transform="scale(1,1) translate(0,0)" stroke="#7F7F7F" fill="none" stroke-opacity="1"><path d="M0,26.619 a26.619,26.619 0 0,1 26.619,-26.619 l459.63,0 a26.619,26.619 0 0,1 26.619,26.619 l0,213.796 a26.619,26.619 0 0,1 -26.619,26.619 l-459.63,0 a26.619,26.619 0 0,1 -26.619,-26.619 z" stroke-width="1" stroke-dasharray="none"/></g><g transform="scale(1,1) translate(0,0)" fill="#9AA9B2" opacity="0.01" stroke="#9AA9B2"><path d="M512.368,35.267 L0.5,35.267 L0.5,35.267 L0.5,27.02 L0.506,26.478 L0.522,25.937 L0.55,25.396 L0.589,24.855 L0.638,24.313 L0.7,23.772 L0.772,23.231 L0.856,22.69 L0.951,22.149 L1.058,21.607 L1.177,21.066 L1.308,20.525 L1.45,19.984 L1.605,19.443 L1.773,18.901 L1.954,18.36 L2.147,17.819 L2.354,17.278 L2.575,16.736 L2.81,16.195 L3.059,15.654 L3.323,15.113 L3.603,14.572 L3.899,14.03 L4.211,13.489 L4.541,12.948 L4.889,12.407 L5.256,11.866 L5.643,11.324 L6.051,10.783 L6.482,10.242 L6.936,9.701 L7.416,9.159 L7.923,8.618 L8.46,8.077 L9.029,7.536 L9.633,6.995 L10.277,6.453 L10.965,5.912 L11.702,5.371 L12.497,4.83 L13.36,4.289 L14.304,3.747 L15.349,3.206 L16.525,2.665 L17.883,2.124 L19.52,1.582 L21.689,1.041 L27.02,0.5 L27.02,0.5 L485.849,0.5 L491.179,1.041 L493.348,1.582 L494.985,2.124 L496.343,2.665 L497.519,3.206 L498.564,3.747 L499.508,4.289 L500.371,4.83 L501.166,5.371 L501.904,5.912 L502.591,6.453 L503.235,6.995 L503.839,7.536 L504.408,8.077 L504.945,8.618 L505.452,9.159 L505.932,9.701 L506.386,10.242 L506.817,10.783 L507.225,11.324 L507.612,11.866 L507.979,12.407 L508.327,12.948 L508.657,13.489 L508.969,14.03 L509.265,14.572 L509.545,15.113 L509.809,15.654 L510.059,16.195 L510.293,16.736 L510.514,17.278 L510.721,17.819 L510.915,18.36 L511.095,18.901 L511.263,19.443 L511.418,19.984 L511.561,20.525 L511.691,21.066 L511.81,21.607 L511.917,22.149 L512.012,22.69 L512.096,23.231 L512.169,23.772 L512.23,24.313 L512.28,24.855 L512.318,25.396 L512.346,25.937 L512.363,26.478 L512.368,27.02 z M504.601,217.934 L0.5,217.934 L0.5,35.267 L512.368,35.267 L512.368,217.934 L504.601,217.934 z M512.368,217.934 L0.5,217.934 L0.5,240.015 L0.506,240.556 L0.522,241.098 L0.55,241.639 L0.589,242.18 L0.638,242.721 L0.7,243.263 L0.772,243.804 L0.856,244.345 L0.951,244.886 L1.058,245.427 L1.177,245.969 L1.308,246.51 L1.45,247.051 L1.605,247.592 L1.773,248.133 L1.954,248.675 L2.147,249.216 L2.354,249.757 L2.575,250.298 L2.81,250.84 L3.059,251.381 L3.323,251.922 L3.603,252.463 L3.899,253.004 L4.211,253.546 L4.541,254.087 L4.889,254.628 L5.256,255.169 L5.643,255.71 L6.051,256.252 L6.482,256.793 L6.936,257.334 L7.416,257.875 L7.923,258.417 L8.46,258.958 L9.029,259.499 L9.633,260.04 L10.277,260.581 L10.965,261.123 L11.702,261.664 L12.497,262.205 L13.36,262.746 L14.304,263.288 L15.349,263.829 L16.525,264.37 L17.883,264.911 L19.52,265.452 L21.689,265.994 L27.02,266.535 L485.849,266.535 L491.179,265.994 L493.348,265.452 L494.985,264.911 L496.343,264.37 L497.519,263.829 L498.564,263.288 L499.508,262.746 L500.371,262.205 L501.166,261.664 L501.904,261.123 L502.591,260.581 L503.235,260.04 L503.839,259.499 L504.408,258.958 L504.945,258.417 L505.452,257.875 L505.932,257.334 L506.386,256.793 L506.817,256.252 L507.225,255.71 L507.612,255.169 L507.979,254.628 L508.327,254.087 L508.657,253.546 L508.969,253.004 L509.265,252.463 L509.545,251.922 L509.809,251.381 L510.059,250.84 L510.293,250.298 L510.514,249.757 L510.721,249.216 L510.915,248.675 L511.095,248.133 L511.263,247.592 L511.418,247.051 L511.561,246.51 L511.691,245.969 L511.81,245.427 L511.917,244.886 L512.012,244.345 L512.096,243.804 L512.169,243.263 L512.23,242.721 L512.28,242.18 L512.318,241.639 L512.346,241.098 L512.363,240.556 L512.368,240.015 L512.368,27.02 z" stroke-width="0" stroke-dasharray="none"/></g><g width="492.3333333333333" height="23" transform="scale(1,1) translate(10.267,10.267)"><text width="492.3333333333333" height="15.624999046325684" transform="scale(1,1) translate(0,0)" xml:space="preserve"><tspan xml:space="preserve" text-rendering="optimizeSpeed" font-size="13.88888888888889" font-weight="normal" font-style="normal" fill="#000000" x="0" text-anchor="start" y="12.5" textLength="60.41666793823242" style="font-family: Arial, Helvetica Neue, Helvetica, sans-serif;">DataBase</tspan></text></g><g transform="scale(1,1) translate(0,0)" fill="#000000" stroke="#000000" stroke-opacity="0"><path d="M0.5,35.267 L512.368,35.267" fill="none" stroke-width="1" stroke-dasharray="1,1"/><g><g stroke-dasharray="none"><path d="M-0.5,34.267L1.5,34.267L1.5,36.267L-0.5,36.267z" stroke-width="0" fill="none"/></g></g></g><g transform="scale(1,1) translate(0,0)" fill="#000000" stroke="#000000" stroke-opacity="0"><path d="M0.5,217.934 L512.368,217.934" fill="none" stroke-width="1" stroke-dasharray="1,1"/><g><g stroke-dasharray="none"><path d="M-0.5,216.934L1.5,216.934L1.5,218.934L-0.5,218.934z" stroke-width="0" fill="none"/></g></g></g><g stroke="white" fill="none" stroke-opacity="0" stroke-width="3" stroke-dasharray="none" width="3" height="250.5" transform="scale(1,1) translate(11.267,8.267)"><rect width="3" height="250.5"/></g><g stroke="white" fill="none" stroke-opacity="0" stroke-width="3" stroke-dasharray="none" width="496.333" height="3" transform="scale(1,1) translate(8.267,11.267)"><rect width="496.333" height="3"/></g></g><g width="100.769" height="50.299" transform="scale(1,1) translate(287.865,674.6)"><g transform="scale(1,1) translate(0,0)" stroke="#7F7F7F" fill="url(#8ba5fbd3-7756-4abe-af68-459c3ffa11ed)" stroke-opacity="1" filter="url(#65c43504-3807-4868-a9a4-b4a944bb77a2)"><linearGradient id="8ba5fbd3-7756-4abe-af68-459c3ffa11ed" x1="50.384624436188965" y1="0" x2="50.384624436188965" y2="50.299371264554125" gradientUnits="userSpaceOnUse"><stop offset="0%" style="stop-color:#92B0CF;stop-opacity:1;"/><stop offset="100%" style="stop-color:#8CA8CD;stop-opacity:1;"/></linearGradient><path d="M0,10.06 a10.06,10.06 0 0,1 10.06,-10.06 l80.65,0 a10.06,10.06 0 0,1 10.06,10.06 l0,30.18 a10.06,10.06 0 0,1 -10.06,10.06 l-80.65,0 a10.06,10.06 0 0,1 -10.06,-10.06 z" stroke-width="1" stroke-dasharray="none"/></g><g width="89.99346827435713" height="39.52359066653333" transform="scale(1,1) translate(5.388,5.388)"><text width="89.99346827435713" height="15.624999046325684" transform="scale(1,1) translate(0,11.949295810103823)" xml:space="preserve"><tspan xml:space="preserve" text-rendering="optimizeSpeed" font-size="13.88888888888889" font-weight="normal" font-style="normal" fill="#333333" x="15.83" text-anchor="start" y="12.5" textLength="58.333335876464844" style="font-family: Arial, Helvetica Neue, Helvetica, sans-serif;">Database</tspan></text></g></g><g width="99.667" height="50.5" transform="scale(1,1) translate(500.167,774.75)"><g transform="scale(1,1) translate(0,0)" stroke="#7F7F7F" fill="url(#80b4aab5-c426-46f9-9bd2-4ba72e733b01)" stroke-opacity="1" filter="url(#65c43504-3807-4868-a9a4-b4a944bb77a2)"><linearGradient id="80b4aab5-c426-46f9-9bd2-4ba72e733b01" x1="49.83333333333333" y1="0" x2="49.83333333333333" y2="50.5" gradientUnits="userSpaceOnUse"><stop offset="0%" style="stop-color:#92B0CF;stop-opacity:1;"/><stop offset="100%" style="stop-color:#8CA8CD;stop-opacity:1;"/></linearGradient><path d="M0,10.1 a10.1,10.1 0 0,1 10.1,-10.1 l79.467,0 a10.1,10.1 0 0,1 10.1,10.1 l0,30.3 a10.1,10.1 0 0,1 -10.1,10.1 l-79.467,0 a10.1,10.1 0 0,1 -10.1,-10.1 z" stroke-width="1" stroke-dasharray="none"/></g><g width="88.86738095026665" height="39.7007142836" transform="scale(1,1) translate(5.4,5.4)"><text width="88.86738095026665" height="15.624999046325684" transform="scale(1,1) translate(0,12.037857618637158)" xml:space="preserve"><tspan xml:space="preserve" text-rendering="optimizeSpeed" font-size="13.88888888888889" font-weight="normal" font-style="normal" fill="#333333" x="27.624" text-anchor="start" y="12.5" textLength="33.619972229003906" style="font-family: Arial, Helvetica Neue, Helvetica, sans-serif;">Verify</tspan></text></g></g><g width="19" height="19" transform="scale(1,1) translate(232.167,673.833)"><g width="19" height="19" transform="scale(1,1) translate(0,0)" stroke="#7F7F7F" stroke-width="1" stroke-dasharray="none" fill="#000000" fill-opacity="1" stroke-opacity="1" filter="url(#c80acb8e-f31e-4b13-903c-ed8f535818e1)"><ellipse rx="9.5" ry="9.5" cx="9.5" cy="9.5"/></g></g><g width="125.833" height="50.5" transform="scale(1,1) translate(153.75,158.083)"><g transform="scale(1,1) translate(0,0)" stroke="#7F7F7F" fill="url(#3e6072a2-92e3-4497-8aff-7cd3e0b923ad)" stroke-opacity="1" filter="url(#65c43504-3807-4868-a9a4-b4a944bb77a2)"><linearGradient id="3e6072a2-92e3-4497-8aff-7cd3e0b923ad" x1="62.916666666666664" y1="0" x2="62.916666666666664" y2="50.5" gradientUnits="userSpaceOnUse"><stop offset="0%" style="stop-color:#92B0CF;stop-opacity:1;"/><stop offset="100%" style="stop-color:#8CA8CD;stop-opacity:1;"/></linearGradient><path d="M0,10.1 a10.1,10.1 0 0,1 10.1,-10.1 l105.633,0 a10.1,10.1 0 0,1 10.1,10.1 l0,30.3 a10.1,10.1 0 0,1 -10.1,10.1 l-105.633,0 a10.1,10.1 0 0,1 -10.1,-10.1 z" stroke-width="1" stroke-dasharray="none"/></g><g width="115.03404761693332" height="39.7007142836" transform="scale(1,1) translate(5.4,5.4)"><text width="115.03404761693332" height="15.624999046325684" transform="scale(1,1) translate(0,12.037857618637158)" xml:space="preserve"><tspan xml:space="preserve" text-rendering="optimizeSpeed" font-size="13.88888888888889" font-weight="normal" font-style="normal" fill="#333333" x="21.58" text-anchor="start" y="12.5" textLength="71.875" style="font-family: Arial, Helvetica Neue, Helvetica, sans-serif;">Home Page</tspan></text></g></g><g width="87.083" height="8.733" transform="scale(1,1) translate(251.167,674.6)"><g fill="#7F7F7F" stroke="#7F7F7F" stroke-opacity="1" transform="scale(1,1) translate(0,0)"><path fill="none" stroke-width="2" stroke-dasharray="none" d="M0,8.733 A95.096,95.096 0 0,1 87.083,0"/><g><g stroke-dasharray="none"><path d="M78.042,-9.913L87.083,0L73.728,1.285" stroke-width="1" fill="none"/></g></g></g></g><g width="161.365" height="75" transform="scale(1,1) translate(388.635,699.75)"><g fill="#7F7F7F" stroke="#7F7F7F" stroke-opacity="1" transform="scale(1,1) translate(0,0)"><path fill="none" stroke-width="2" stroke-dasharray="none" d="M0,0 A146.932,146.932 0 0,1 161.365,75"/><g><g stroke-dasharray="none"><path d="M160.984,61.589L161.365,75L150.408,67.258" stroke-width="1" fill="none"/></g></g></g><g stroke-width="0" stroke-dasharray="none" fill="#FFFFFF" opacity="1" width="56.167" height="17.625" transform="scale(1,1) translate(65.244,1.482)"><rect width="56.167" height="17.625"/></g><g width="64.5" height="78.3938197312923" transform="scale(1,1) translate(61.077,2.482)"><text width="64.5" height="15.624999046325684" transform="scale(1,1) translate(0,0)" xml:space="preserve"><tspan xml:space="preserve" text-rendering="optimizeSpeed" font-size="13.88888888888889" font-weight="normal" font-style="normal" fill="#000000" x="5.167" text-anchor="start" y="12.5" textLength="54.16666793823242" style="font-family: Arial, Helvetica Neue, Helvetica, sans-serif;">Changes</tspan></text></g></g><g width="211.75" height="100.35" transform="scale(1,1) translate(338.25,724.9)"><g fill="#7F7F7F" stroke="#7F7F7F" stroke-opacity="1" transform="scale(1,1) translate(0,0)"><path fill="none" stroke-width="2" stroke-dasharray="none" d="M0,0 A137.173,137.173 0 0,0 211.75,100.35"/><g><g stroke-dasharray="none"><path d="M-5.492,12.241L0,0L6.497,11.738" stroke-width="1" fill="none"/></g></g></g></g><g width="156.833" height="38" transform="scale(1,1) translate(271.667,770.167)"><g stroke="#000000" opacity="1" stroke-width="0" stroke-dasharray="none" width="156.833" height="38" transform="scale(1,1) translate(0,0)" fill="#FFFFFF" fill-opacity="1" stroke-opacity="1"><rect width="156.833" height="38"/></g><g width="156.83333333333331" height="38" transform="scale(1,1) translate(0,0)"><text width="156.83333333333331" height="15.624999046325684" transform="scale(1,1) translate(0,11.187500476837158)" xml:space="preserve"><tspan xml:space="preserve" text-rendering="optimizeSpeed" font-size="13.88888888888889" font-weight="normal" font-style="normal" fill="#333333" x="51.333" text-anchor="start" y="12.5" textLength="54.16666793823242" style="font-family: Arial, Helvetica Neue, Helvetica, sans-serif;">Updating</tspan></text></g></g><g width="98.667" height="50.167" transform="scale(1,1) translate(484,233.25)"><g transform="scale(1,1) translate(0,0)" stroke="#7F7F7F" fill="#FFFFFF" fill-opacity="1" stroke-opacity="1"><path d="M0,10.033 a10.033,10.033 0 0,1 10.033,-10.033 l78.6,0 a10.033,10.033 0 0,1 10.033,10.033 l0,30.1 a10.033,10.033 0 0,1 -10.033,10.033 l-78.6,0 a10.033,10.033 0 0,1 -10.033,-10.033 z" stroke-width="1" stroke-dasharray="none"/></g><g width="87.90643337933332" height="39.40643337933333" transform="scale(1,1) translate(5.38,5.38)"><text width="87.90643337933332" height="16.66666603088379" transform="scale(1,1) translate(0,11.36988367422477)" xml:space="preserve"><tspan xml:space="preserve" text-rendering="optimizeSpeed" font-size="13.88888888888889" font-weight="normal" font-style="normal" fill="#000000" x="9.057" text-anchor="start" y="13.542" textLength="69.79166412353516" style="font-family: Verdana, Geneva, sans-serif;">III Indore</tspan></text></g></g><g width="98.667" height="50.167" transform="scale(1,1) translate(242.333,324.917)"><g transform="scale(1,1) translate(0,0)" stroke="#7F7F7F" fill="#FFFFFF" fill-opacity="1" stroke-opacity="1"><path d="M0,10.033 a10.033,10.033 0 0,1 10.033,-10.033 l78.6,0 a10.033,10.033 0 0,1 10.033,10.033 l0,30.1 a10.033,10.033 0 0,1 -10.033,10.033 l-78.6,0 a10.033,10.033 0 0,1 -10.033,-10.033 z" stroke-width="1" stroke-dasharray="none"/></g><g width="87.90643337933332" height="39.40643337933333" transform="scale(1,1) translate(5.38,5.38)"><text width="87.90643337933332" height="16.66666603088379" transform="scale(1,1) translate(0,11.36988367422477)" xml:space="preserve"><tspan xml:space="preserve" text-rendering="optimizeSpeed" font-size="13.88888888888889" font-weight="normal" font-style="normal" fill="#000000" x="12.352" text-anchor="start" y="13.542" textLength="63.20266342163086" style="font-family: Verdana, Geneva, sans-serif;">Research</tspan></text></g></g><g width="98.667" height="50.167" transform="scale(1,1) translate(142.333,324.917)"><g transform="scale(1,1) translate(0,0)" stroke="#7F7F7F" fill="#FFFFFF" fill-opacity="1" stroke-opacity="1"><path d="M0,10.033 a10.033,10.033 0 0,1 10.033,-10.033 l78.6,0 a10.033,10.033 0 0,1 10.033,10.033 l0,30.1 a10.033,10.033 0 0,1 -10.033,10.033 l-78.6,0 a10.033,10.033 0 0,1 -10.033,-10.033 z" stroke-width="1" stroke-dasharray="none"/></g><g width="87.90643337933332" height="39.40643337933333" transform="scale(1,1) translate(5.38,5.38)"><text width="87.90643337933332" height="16.66666603088379" transform="scale(1,1) translate(0,11.36988367422477)" xml:space="preserve"><tspan xml:space="preserve" text-rendering="optimizeSpeed" font-size="13.88888888888889" font-weight="normal" font-style="normal" fill="#000000" x="19.995" text-anchor="start" y="13.542" textLength="47.91666793823242" style="font-family: Verdana, Geneva, sans-serif;">Details</tspan></text></g></g><g width="0" height="51.167" transform="scale(1,1) translate(412.5,324.917)"><g fill="#545454" stroke="#545454" stroke-opacity="1" transform="scale(1,1) translate(0,0)"><path fill="none" stroke-width="1" stroke-dasharray="none" d="M0,0 L0,0 M0,0 L0,0 M0,51.167 L0,51.167 M0,0 L0,0"/><g><g stroke-dasharray="none"><path d="M0,0L-10,0L-10,-10L0,-10z" stroke-width="0" fill="none"/></g></g></g></g><g width="98.667" height="50.167" transform="scale(1,1) translate(363.167,324.917)"><g transform="scale(1,1) translate(0,0)" stroke="#7F7F7F" fill="#FFFFFF" fill-opacity="1" stroke-opacity="1"><path d="M0,10.033 a10.033,10.033 0 0,1 10.033,-10.033 l78.6,0 a10.033,10.033 0 0,1 10.033,10.033 l0,30.1 a10.033,10.033 0 0,1 -10.033,10.033 l-78.6,0 a10.033,10.033 0 0,1 -10.033,-10.033 z" stroke-width="1" stroke-dasharray="none"/></g><g width="87.90643337933332" height="39.40643337933333" transform="scale(1,1) translate(5.38,5.38)"><text width="87.90643337933332" height="33.33333206176758" transform="scale(1,1) translate(0,3.0365506587828754)" xml:space="preserve"><tspan xml:space="preserve" text-rendering="optimizeSpeed" font-size="13.88888888888889" font-weight="normal" font-style="normal" fill="#000000" x="11.366" text-anchor="start" y="13.542" textLength="59.96673583984375" style="font-family: Verdana, Geneva, sans-serif;">Teaching</tspan><tspan xml:space="preserve" text-rendering="optimizeSpeed" font-size="13.88888888888889" font-weight="normal" font-style="normal" fill="#000000" x="28.735" text-anchor="start" y="30.208" textLength="30.43640899658203" style="font-family: Verdana, Geneva, sans-serif;">staff</tspan></text></g></g><g width="98.667" height="50.167" transform="scale(1,1) translate(9,408.25)"><g transform="scale(1,1) translate(0,0)" stroke="#7F7F7F" fill="#FFFFFF" fill-opacity="1" stroke-opacity="1"><path d="M0,10.033 a10.033,10.033 0 0,1 10.033,-10.033 l78.6,0 a10.033,10.033 0 0,1 10.033,10.033 l0,30.1 a10.033,10.033 0 0,1 -10.033,10.033 l-78.6,0 a10.033,10.033 0 0,1 -10.033,-10.033 z" stroke-width="1" stroke-dasharray="none"/></g><g width="87.90643337933332" height="39.40643337933333" transform="scale(1,1) translate(5.38,5.38)"><text width="87.90643337933332" height="16.66666603088379" transform="scale(1,1) translate(0,11.36988367422477)" xml:space="preserve"><tspan xml:space="preserve" text-rendering="optimizeSpeed" font-size="13.88888888888889" font-weight="normal" font-style="normal" fill="#000000" x="14.787" text-anchor="start" y="13.542" textLength="58.33332824707031" style="font-family: Verdana, Geneva, sans-serif;">students</tspan></text></g></g><g width="98.667" height="50.167" transform="scale(1,1) translate(9,241.583)"><g transform="scale(1,1) translate(0,0)" stroke="#7F7F7F" fill="#FFFFFF" fill-opacity="1" stroke-opacity="1"><path d="M0,10.033 a10.033,10.033 0 0,1 10.033,-10.033 l78.6,0 a10.033,10.033 0 0,1 10.033,10.033 l0,30.1 a10.033,10.033 0 0,1 -10.033,10.033 l-78.6,0 a10.033,10.033 0 0,1 -10.033,-10.033 z" stroke-width="1" stroke-dasharray="none"/></g><g width="87.90643337933332" height="39.40643337933333" transform="scale(1,1) translate(5.38,5.38)"><text width="87.90643337933332" height="16.66666603088379" transform="scale(1,1) translate(0,11.36988367422477)" xml:space="preserve"><tspan xml:space="preserve" text-rendering="optimizeSpeed" font-size="13.88888888888889" font-weight="normal" font-style="normal" fill="#000000" x="13.97" text-anchor="start" y="13.542" textLength="59.96673583984375" style="font-family: Verdana, Geneva, sans-serif;">Teaching</tspan></text></g></g><g width="98.667" height="50.167" transform="scale(1,1) translate(634,124.917)"><g transform="scale(1,1) translate(0,0)" stroke="#7F7F7F" fill="#FFFFFF" fill-opacity="1" stroke-opacity="1"><path d="M0,10.033 a10.033,10.033 0 0,1 10.033,-10.033 l78.6,0 a10.033,10.033 0 0,1 10.033,10.033 l0,30.1 a10.033,10.033 0 0,1 -10.033,10.033 l-78.6,0 a10.033,10.033 0 0,1 -10.033,-10.033 z" stroke-width="1" stroke-dasharray="none"/></g><g width="87.90643337933332" height="39.40643337933333" transform="scale(1,1) translate(5.38,5.38)"><text width="87.90643337933332" height="16.66666603088379" transform="scale(1,1) translate(0,11.36988367422477)" xml:space="preserve"><tspan xml:space="preserve" text-rendering="optimizeSpeed" font-size="13.88888888888889" font-weight="normal" font-style="normal" fill="#000000" x="24.682" text-anchor="start" y="13.542" textLength="38.541664123535156" style="font-family: Verdana, Geneva, sans-serif;">about</tspan></text></g></g><g width="51.98" height="38.897" transform="scale(1,1) translate(104.728,205.625)"><g fill="#545454" stroke="#545454" stroke-opacity="1" transform="scale(1,1) translate(0,0)"><path fill="none" stroke-width="1" stroke-dasharray="none" d="M0,38.897 A107.273,107.273 0 0,1 51.98,0"/><g><g stroke-dasharray="none"><path d="M40.879,-1.331L51.98,0L44.255,8.082" stroke-width="0.5" fill="none"/></g></g></g><g stroke-width="0" stroke-dasharray="none" fill="#FFFFFF" opacity="1" width="49.917" height="17.625" transform="scale(1,1) translate(-1.981,6.609)"><rect width="49.917" height="17.625"/></g><g width="47.91666793823242" height="38.89691678906678" transform="scale(1,1) translate(-0.981,7.609)"><text width="47.91666793823242" height="15.624999046325684" transform="scale(1,1) translate(0,0)" xml:space="preserve"><tspan xml:space="preserve" text-rendering="optimizeSpeed" font-size="13.88888888888889" font-weight="normal" font-style="normal" fill="#333333" x="0" text-anchor="start" y="12.5" textLength="47.91666793823242" style="font-family: Arial, Helvetica Neue, Helvetica, sans-serif;">courses</tspan></text></g></g><g width="400.854" height="6.938" transform="scale(1,1) translate(257.812,175.083)"><g fill="#545454" stroke="#545454" stroke-opacity="1" transform="scale(1,1) translate(0,0)"><path fill="none" stroke-width="1" stroke-dasharray="none" d="M0,6.938 A566.865,566.865 0 0,1 400.854,0"/><g><g stroke-dasharray="none"><path d="M393.111,-8.065L400.854,0L389.756,1.355" stroke-width="0.5" fill="none"/></g></g></g></g><g width="53.229" height="117.729" transform="scale(1,1) translate(185.208,208.583)"><g fill="#545454" stroke="#545454" stroke-opacity="1" transform="scale(1,1) translate(0,0)"><path fill="none" stroke-width="1" stroke-dasharray="none" d="M53.229,117.729 A227.389,227.389 0 0,1 0,0"/><g><g stroke-dasharray="none"><path d="M-3.545,10.603L0,0L6.356,9.198" stroke-width="0.5" fill="none"/></g></g></g><g stroke-width="0" stroke-dasharray="none" fill="#FFFFFF" opacity="1" width="70.75" height="17.625" transform="scale(1,1) translate(-17.298,53.912)"><rect width="70.75" height="17.625"/></g><g width="68.75" height="117.72911075089996" transform="scale(1,1) translate(-16.298,54.912)"><text width="68.75" height="15.624999046325684" transform="scale(1,1) translate(0,0)" xml:space="preserve"><tspan xml:space="preserve" text-rendering="optimizeSpeed" font-size="13.88888888888889" font-weight="normal" font-style="normal" fill="#333333" x="0" text-anchor="start" y="12.5" textLength="68.75" style="font-family: Arial, Helvetica Neue, Helvetica, sans-serif;">Know More</tspan></text></g></g><g width="62.574" height="112.411" transform="scale(1,1) translate(220.819,209.776)"><g fill="#545454" stroke="#545454" stroke-opacity="1" transform="scale(1,1) translate(0,0)"><path fill="none" stroke-width="1" stroke-dasharray="none" d="M62.574,112.411 A210.509,210.509 0 0,0 0,0"/><g><g stroke-dasharray="none"><path d="M3.834,10.502L0,0L10.702,3.234" stroke-width="0.5" fill="none"/></g></g></g><g stroke-width="0" stroke-dasharray="none" fill="#FFFFFF" opacity="1" width="60.333" height="17.625" transform="scale(1,1) translate(9.918,42.496)"><rect width="60.333" height="17.625"/></g><g width="58.333335876464844" height="112.41096418559704" transform="scale(1,1) translate(10.918,43.496)"><text width="58.333335876464844" height="15.624999046325684" transform="scale(1,1) translate(0,0)" xml:space="preserve"><tspan xml:space="preserve" text-rendering="optimizeSpeed" font-size="13.88888888888889" font-weight="normal" font-style="normal" fill="#333333" x="0" text-anchor="start" y="12.5" textLength="58.333335876464844" style="font-family: Arial, Helvetica Neue, Helvetica, sans-serif;">Research</tspan></text></g></g><g width="80.48" height="202.605" transform="scale(1,1) translate(104.728,208.583)"><g fill="#545454" stroke="#545454" stroke-opacity="1" transform="scale(1,1) translate(0,0)"><path fill="none" stroke-width="1" stroke-dasharray="none" d="M0,202.605 A290.569,290.569 0 0,1 80.48,0"/><g><g stroke-dasharray="none"><path d="M69.97,3.812L80.48,0L77.224,10.696" stroke-width="0.5" fill="none"/></g></g></g><g stroke-width="0" stroke-dasharray="none" fill="#FFFFFF" opacity="1" width="86.375" height="17.625" transform="scale(1,1) translate(-22.668,84.656)"><rect width="86.375" height="17.625"/></g><g width="84.37499237060547" height="202.6053619539333" transform="scale(1,1) translate(-21.668,85.656)"><text width="84.37499237060547" height="15.624999046325684" transform="scale(1,1) translate(0,0)" xml:space="preserve"><tspan xml:space="preserve" text-rendering="optimizeSpeed" font-size="13.88888888888889" font-weight="normal" font-style="normal" fill="#333333" x="0" text-anchor="start" y="12.5" textLength="84.37499237060547" style="font-family: Arial, Helvetica Neue, Helvetica, sans-serif;">About student</tspan></text></g></g><g width="171.167" height="116.333" transform="scale(1,1) translate(216.667,208.583)"><g fill="#545454" stroke="#545454" stroke-opacity="1" transform="scale(1,1) translate(0,0)"><path fill="none" stroke-width="1" stroke-dasharray="none" d="M171.167,116.333 A325.074,325.074 0 0,0 0,0"/><g><g stroke-dasharray="none"><path d="M8.258,7.537L0,0L10.984,-2.084" stroke-width="0.5" fill="none"/></g></g></g><g stroke-width="0" stroke-dasharray="none" fill="#FFFFFF" opacity="1" width="67.625" height="17.625" transform="scale(1,1) translate(61.276,35.369)"><rect width="67.625" height="17.625"/></g><g width="65.625" height="116.33333333333329" transform="scale(1,1) translate(62.276,36.369)"><text width="65.625" height="15.624999046325684" transform="scale(1,1) translate(0,0)" xml:space="preserve"><tspan xml:space="preserve" text-rendering="optimizeSpeed" font-size="13.88888888888889" font-weight="normal" font-style="normal" fill="#333333" x="0" text-anchor="start" y="12.5" textLength="65.625" style="font-family: Arial, Helvetica Neue, Helvetica, sans-serif;">Professors</tspan></text></g></g><g width="98.667" height="50.167" transform="scale(1,1) translate(209,441.583)"><g transform="scale(1,1) translate(0,0)" stroke="#7F7F7F" fill="#FFFFFF" fill-opacity="1" stroke-opacity="1"><path d="M0,10.033 a10.033,10.033 0 0,1 10.033,-10.033 l78.6,0 a10.033,10.033 0 0,1 10.033,10.033 l0,30.1 a10.033,10.033 0 0,1 -10.033,10.033 l-78.6,0 a10.033,10.033 0 0,1 -10.033,-10.033 z" stroke-width="1" stroke-dasharray="none"/></g><g width="87.90643337933332" height="39.40643337933333" transform="scale(1,1) translate(5.38,5.38)"><text width="87.90643337933332" height="33.33333206176758" transform="scale(1,1) translate(0,3.0365506587828754)" xml:space="preserve"><tspan xml:space="preserve" text-rendering="optimizeSpeed" font-size="13.88888888888889" font-weight="normal" font-style="normal" fill="#000000" x="27.287" text-anchor="start" y="13.542" textLength="28.125" style="font-family: Verdana, Geneva, sans-serif;">own</tspan><tspan xml:space="preserve" text-rendering="optimizeSpeed" font-size="13.88888888888889" font-weight="normal" font-style="normal" fill="#000000" x="13.745" text-anchor="start" y="30.208" textLength="60.41666030883789" style="font-family: Verdana, Geneva, sans-serif;">websites</tspan></text></g></g><g width="83.105" height="69.439" transform="scale(1,1) translate(304.728,375.083)"><g fill="#545454" stroke="#545454" stroke-opacity="1" transform="scale(1,1) translate(0,0)"><path fill="none" stroke-width="1" stroke-dasharray="none" d="M83.105,0 A117.655,117.655 0 0,0 0,69.439"/><g><g stroke-dasharray="none"><path d="M8.535,62.218L0,69.439L-0.656,58.278" stroke-width="0.5" fill="none"/></g></g></g></g><g width="101.333" height="8.25" transform="scale(1,1) translate(107.667,445.875)"><g fill="#545454" stroke="#545454" stroke-opacity="1" transform="scale(1,1) translate(0,0)"><path fill="none" stroke-width="1" stroke-dasharray="none" d="M0,0 A132.169,132.169 0 0,1 101.333,8.25"/><g><g stroke-dasharray="none"><path d="M94.668,-0.726L101.333,8.25L90.153,8.196" stroke-width="0.5" fill="none"/></g></g></g></g><g width="98.667" height="50.167" transform="scale(1,1) translate(625.667,208.25)"><g transform="scale(1,1) translate(0,0)" stroke="#7F7F7F" fill="#FFFFFF" fill-opacity="1" stroke-opacity="1"><path d="M0,10.033 a10.033,10.033 0 0,1 10.033,-10.033 l78.6,0 a10.033,10.033 0 0,1 10.033,10.033 l0,30.1 a10.033,10.033 0 0,1 -10.033,10.033 l-78.6,0 a10.033,10.033 0 0,1 -10.033,-10.033 z" stroke-width="1" stroke-dasharray="none"/></g><g width="87.90643337933332" height="39.40643337933333" transform="scale(1,1) translate(5.38,5.38)"><text width="87.90643337933332" height="33.33333206176758" transform="scale(1,1) translate(0,3.0365506587828754)" xml:space="preserve"><tspan xml:space="preserve" text-rendering="optimizeSpeed" font-size="13.88888888888889" font-weight="normal" font-style="normal" fill="#000000" x="0.203" text-anchor="start" y="13.542" textLength="82.29166412353516" style="font-family: Verdana, Geneva, sans-serif;">Admin login</tspan><tspan xml:space="preserve" text-rendering="optimizeSpeed" font-size="13.88888888888889" font-weight="normal" font-style="normal" fill="#000000" x="27.287" text-anchor="start" y="30.208" textLength="33.333343505859375" style="font-family: Verdana, Geneva, sans-serif;">page</tspan></text></g></g><g width="383.167" height="26.586" transform="scale(1,1) translate(258.5,181.748)"><g fill="#545454" stroke="#545454" stroke-opacity="1" transform="scale(1,1) translate(0,0)"><path fill="none" stroke-width="1" stroke-dasharray="none" d="M0,0 A499.314,499.314 0 0,1 383.167,26.586"/><g><g stroke-dasharray="none"><path d="M376.442,17.654L383.167,26.586L371.987,26.606" stroke-width="0.5" fill="none"/></g></g></g><g stroke-width="0" stroke-dasharray="none" fill="#FFFFFF" opacity="1" width="73.875" height="17.625" transform="scale(1,1) translate(157.304,-33.836)"><rect width="73.875" height="17.625"/></g><g width="71.875" height="52.804481049186336" transform="scale(1,1) translate(158.304,-32.836)"><text width="71.875" height="15.624999046325684" transform="scale(1,1) translate(0,0)" xml:space="preserve"><tspan xml:space="preserve" text-rendering="optimizeSpeed" font-size="13.88888888888889" font-weight="normal" font-style="normal" fill="#333333" x="0" text-anchor="start" y="12.5" textLength="71.875" style="font-family: Arial, Helvetica Neue, Helvetica, sans-serif;">Admin pade</tspan></text></g></g><g width="292.333" height="116.625" transform="scale(1,1) translate(724.333,245.875)"><g fill="#545454" stroke="#545454" stroke-opacity="1" transform="scale(1,1) translate(0,0)"><path fill="none" stroke-width="1" stroke-dasharray="none" d="M0,0 A474.855,474.855 0 0,1 292.333,116.625"/><g><g stroke-dasharray="none"><path d="M288.061,106.293L292.333,116.625L281.504,113.843" stroke-width="0.5" fill="none"/></g></g></g><g stroke-width="0" stroke-dasharray="none" fill="#FFFFFF" opacity="1" width="119.708" height="17.625" transform="scale(1,1) translate(96.256,24.576)"><rect width="119.708" height="17.625"/></g><g width="117.70832061767578" height="116.625" transform="scale(1,1) translate(97.256,25.576)"><text width="117.70832061767578" height="15.624999046325684" transform="scale(1,1) translate(0,0)" xml:space="preserve"><tspan xml:space="preserve" text-rendering="optimizeSpeed" font-size="13.88888888888889" font-weight="normal" font-style="normal" fill="#333333" x="0" text-anchor="start" y="12.5" textLength="117.70832061767578" style="font-family: Arial, Helvetica Neue, Helvetica, sans-serif;">searching database</tspan></text></g></g><g width="0" height="15.625" transform="scale(1,1) translate(0,0)"><g stroke="#545454" opacity="1" stroke-width="0" stroke-dasharray="none" width="0" height="15.625" transform="scale(1,1) translate(0,0)" fill="none" stroke-opacity="1"><rect width="0" height="15.625"/></g></g><g width="0" height="15.625" transform="scale(1,1) translate(1041.667,525.276)"><g stroke="#545454" opacity="1" stroke-width="0" stroke-dasharray="none" width="0" height="15.625" transform="scale(1,1) translate(0,0)" fill="none" stroke-opacity="1"><rect width="0" height="15.625"/></g></g><g width="25" height="25" transform="rotate(45,958.333,883.333) scale(1,1) translate(945.833,870.833)"><g transform="scale(1.041665894014437,1.0416669288167906) translate(0,0)" width="25" height="25"><g><g width="23" height="23" transform="scale(1,1) translate(0.499,0.5)"><g width="23" height="23" transform="scale(1,1) translate(0,0)" stroke="#000000" stroke-width="1" stroke-dasharray="none" fill="none" stroke-opacity="1"><ellipse rx="11.5" ry="11.5" cx="11.5" cy="11.5"/></g></g><g width="11" height="11" transform="scale(1,1) translate(6.499,6.5)"><g width="11" height="11" transform="scale(1,1) translate(0,0)" stroke="#000000" stroke-width="1" stroke-dasharray="none" fill="#000000" fill-opacity="1" stroke-opacity="1"><ellipse rx="5.5" ry="5.5" cx="5.5" cy="5.5"/></g></g></g></g></g><g width="313.115" height="225.428" transform="scale(1,1) translate(698.637,662.793)"><g fill="#7F7F7F" stroke="#7F7F7F" stroke-opacity="1" transform="scale(1,1) translate(0,0)"><path fill="none" stroke-width="2" stroke-dasharray="none" d="M0,225.428 A635.244,635.244 0 0,1 313.115,0"/><g><g stroke-dasharray="none"><path d="M299.842,-1.958L313.115,0L303.585,9.444" stroke-width="1" fill="none"/></g></g></g><g stroke-width="0" stroke-dasharray="none" fill="#FFFFFF" opacity="1" width="61.375" height="33.25" transform="scale(1,1) translate(108.342,71.742)"><rect width="61.375" height="33.25"/></g><g width="64.5" height="225.4275446939406" transform="scale(1,1) translate(106.779,72.742)"><text width="64.5" height="31.249998092651367" transform="scale(1,1) translate(0,0)" xml:space="preserve"><tspan xml:space="preserve" text-rendering="optimizeSpeed" font-size="13.88888888888889" font-weight="normal" font-style="normal" fill="#000000" x="2.562" text-anchor="start" y="12.5" textLength="55.208335876464844" style="font-family: Arial, Helvetica Neue, Helvetica, sans-serif;">After Log</tspan><tspan xml:space="preserve" text-rendering="optimizeSpeed" font-size="13.88888888888889" font-weight="normal" font-style="normal" fill="#000000" x="22.875" text-anchor="start" y="28.125" textLength="18.749996185302734" style="font-family: Arial, Helvetica Neue, Helvetica, sans-serif;">out</tspan></text></g></g><g width="47.223" height="33.333" transform="rotate(60,1023.558,683.241) scale(1,1) translate(999.947,666.575)"><g transform="scale(1,1) translate(0,0)" stroke="#545454" fill="#FFFFFF" fill-opacity="1" stroke-opacity="1"><path d="M23.611,0 L47.223,16.667 L23.611,33.333 L0,16.667 L23.611,0 z" stroke-width="1" stroke-dasharray="none"/></g></g><g width="68.428" height="171.041" transform="scale(1,1) translate(966.936,703.689)"><g fill="#7F7F7F" stroke="#7F7F7F" stroke-opacity="1" transform="scale(1,1) translate(0,0)"><path fill="none" stroke-width="2" stroke-dasharray="none" d="M68.428,0 A156.405,156.405 0 0,1 0,171.041"/><g><g stroke-dasharray="none"><path d="M13.345,169.659L0,171.041L6.901,159.536" stroke-width="1" fill="none"/></g></g></g><g stroke-width="0" stroke-dasharray="none" fill="#FFFFFF" opacity="1" width="52" height="33.25" transform="scale(1,1) translate(36.067,80.039)"><rect width="52" height="33.25"/></g><g width="64.5" height="171.0408576072116" transform="scale(1,1) translate(29.817,81.039)"><text width="64.5" height="31.249998092651367" transform="scale(1,1) translate(0,0)" xml:space="preserve"><tspan xml:space="preserve" text-rendering="optimizeSpeed" font-size="13.88888888888889" font-weight="normal" font-style="normal" fill="#000000" x="18.188" text-anchor="start" y="12.5" textLength="23.958332061767578" style="font-family: Arial, Helvetica Neue, Helvetica, sans-serif;">End</tspan><tspan xml:space="preserve" text-rendering="optimizeSpeed" font-size="13.88888888888889" font-weight="normal" font-style="normal" fill="#000000" x="7.25" text-anchor="start" y="28.125" textLength="50.00000190734863" style="font-family: Arial, Helvetica Neue, Helvetica, sans-serif;">Process</tspan></text></g></g><g width="761.367" height="469.283" transform="scale(1,1) translate(276.625,205.625)"><g fill="#545454" stroke="#545454" stroke-opacity="1" transform="scale(1,1) translate(0,0)"><path fill="none" stroke-width="1" stroke-dasharray="none" d="M761.367,469.283 A2598.879,2598.879 0 0,0 0,0"/><g><g stroke-dasharray="none"><path d="M7.431,8.353L0,0L11.142,-0.933" stroke-width="0.5" fill="none"/></g></g></g><g stroke-width="0" stroke-dasharray="none" fill="#FFFFFF" opacity="1" width="152" height="17.625" transform="scale(1,1) translate(325.022,192.831)"><rect width="152" height="17.625"/></g><g width="150" height="469.2828556357738" transform="scale(1,1) translate(326.022,193.831)"><text width="150" height="15.624999046325684" transform="scale(1,1) translate(0,0)" xml:space="preserve"><tspan xml:space="preserve" text-rendering="optimizeSpeed" font-size="13.88888888888889" font-weight="normal" font-style="normal" fill="#333333" x="0" text-anchor="start" y="12.5" textLength="150" style="font-family: Arial, Helvetica Neue, Helvetica, sans-serif;">Or redirect to home page</tspan></text></g></g><g width="512.868" height="267.035" transform="scale(1,1) translate(1067.124,391.391)"><g transform="scale(1,1) translate(0,0)" stroke="#7F7F7F" fill="none" stroke-opacity="1"><path d="M0,26.619 a26.619,26.619 0 0,1 26.619,-26.619 l459.63,0 a26.619,26.619 0 0,1 26.619,26.619 l0,213.796 a26.619,26.619 0 0,1 -26.619,26.619 l-459.63,0 a26.619,26.619 0 0,1 -26.619,-26.619 z" stroke-width="1" stroke-dasharray="none"/></g><g transform="scale(1,1) translate(0,0)" fill="#9AA9B2" opacity="0.01" stroke="#9AA9B2"><path d="M512.368,35.267 L0.5,35.267 L0.5,35.267 L0.5,27.02 L0.506,26.478 L0.522,25.937 L0.55,25.396 L0.589,24.855 L0.638,24.313 L0.7,23.772 L0.772,23.231 L0.856,22.69 L0.951,22.149 L1.058,21.607 L1.177,21.066 L1.308,20.525 L1.45,19.984 L1.605,19.443 L1.773,18.901 L1.954,18.36 L2.147,17.819 L2.354,17.278 L2.575,16.736 L2.81,16.195 L3.059,15.654 L3.323,15.113 L3.603,14.572 L3.899,14.03 L4.211,13.489 L4.541,12.948 L4.889,12.407 L5.256,11.866 L5.643,11.324 L6.051,10.783 L6.482,10.242 L6.936,9.701 L7.416,9.159 L7.923,8.618 L8.46,8.077 L9.029,7.536 L9.633,6.995 L10.277,6.453 L10.965,5.912 L11.702,5.371 L12.497,4.83 L13.36,4.289 L14.304,3.747 L15.349,3.206 L16.525,2.665 L17.883,2.124 L19.52,1.582 L21.689,1.041 L27.02,0.5 L27.02,0.5 L485.849,0.5 L491.179,1.041 L493.348,1.582 L494.985,2.124 L496.343,2.665 L497.519,3.206 L498.564,3.747 L499.508,4.289 L500.371,4.83 L501.166,5.371 L501.904,5.912 L502.591,6.453 L503.235,6.995 L503.839,7.536 L504.408,8.077 L504.945,8.618 L505.452,9.159 L505.932,9.701 L506.386,10.242 L506.817,10.783 L507.225,11.324 L507.612,11.866 L507.979,12.407 L508.327,12.948 L508.657,13.489 L508.969,14.03 L509.265,14.572 L509.545,15.113 L509.809,15.654 L510.059,16.195 L510.293,16.736 L510.514,17.278 L510.721,17.819 L510.915,18.36 L511.095,18.901 L511.263,19.443 L511.418,19.984 L511.561,20.525 L511.691,21.066 L511.81,21.607 L511.917,22.149 L512.012,22.69 L512.096,23.231 L512.169,23.772 L512.23,24.313 L512.28,24.855 L512.318,25.396 L512.346,25.937 L512.363,26.478 L512.368,27.02 z M504.601,217.934 L0.5,217.934 L0.5,35.267 L512.368,35.267 L512.368,217.934 L504.601,217.934 z M512.368,217.934 L0.5,217.934 L0.5,240.015 L0.506,240.556 L0.522,241.098 L0.55,241.639 L0.589,242.18 L0.638,242.721 L0.7,243.263 L0.772,243.804 L0.856,244.345 L0.951,244.886 L1.058,245.427 L1.177,245.969 L1.308,246.51 L1.45,247.051 L1.605,247.592 L1.773,248.133 L1.954,248.675 L2.147,249.216 L2.354,249.757 L2.575,250.298 L2.81,250.84 L3.059,251.381 L3.323,251.922 L3.603,252.463 L3.899,253.004 L4.211,253.546 L4.541,254.087 L4.889,254.628 L5.256,255.169 L5.643,255.71 L6.051,256.252 L6.482,256.793 L6.936,257.334 L7.416,257.875 L7.923,258.417 L8.46,258.958 L9.029,259.499 L9.633,260.04 L10.277,260.581 L10.965,261.123 L11.702,261.664 L12.497,262.205 L13.36,262.746 L14.304,263.288 L15.349,263.829 L16.525,264.37 L17.883,264.911 L19.52,265.452 L21.689,265.994 L27.02,266.535 L485.849,266.535 L491.179,265.994 L493.348,265.452 L494.985,264.911 L496.343,264.37 L497.519,263.829 L498.564,263.288 L499.508,262.746 L500.371,262.205 L501.166,261.664 L501.904,261.123 L502.591,260.581 L503.235,260.04 L503.839,259.499 L504.408,258.958 L504.945,258.417 L505.452,257.875 L505.932,257.334 L506.386,256.793 L506.817,256.252 L507.225,255.71 L507.612,255.169 L507.979,254.628 L508.327,254.087 L508.657,253.546 L508.969,253.004 L509.265,252.463 L509.545,251.922 L509.809,251.381 L510.059,250.84 L510.293,250.298 L510.514,249.757 L510.721,249.216 L510.915,248.675 L511.095,248.133 L511.263,247.592 L511.418,247.051 L511.561,246.51 L511.691,245.969 L511.81,245.427 L511.917,244.886 L512.012,244.345 L512.096,243.804 L512.169,243.263 L512.23,242.721 L512.28,242.18 L512.318,241.639 L512.346,241.098 L512.363,240.556 L512.368,240.015 L512.368,27.02 z" stroke-width="0" stroke-dasharray="none"/></g><g width="492.3333333333333" height="23" transform="scale(1,1) translate(10.267,10.267)"><text width="492.3333333333333" height="15.624999046325684" transform="scale(1,1) translate(0,0)" xml:space="preserve"><tspan xml:space="preserve" text-rendering="optimizeSpeed" font-size="13.88888888888889" font-weight="normal" font-style="normal" fill="#000000" x="0" text-anchor="start" y="12.5" textLength="21.377609252929688" style="font-family: Arial, Helvetica Neue, Helvetica, sans-serif;">IOT</tspan></text></g><g transform="scale(1,1) translate(0,0)" fill="#000000" stroke="#000000" stroke-opacity="0"><path d="M0.5,35.267 L512.368,35.267" fill="none" stroke-width="1" stroke-dasharray="1,1"/><g><g stroke-dasharray="none"><path d="M-0.5,34.267L1.5,34.267L1.5,36.267L-0.5,36.267z" stroke-width="0" fill="none"/></g></g></g><g transform="scale(1,1) translate(0,0)" fill="#000000" stroke="#000000" stroke-opacity="0"><path d="M0.5,217.934 L512.368,217.934" fill="none" stroke-width="1" stroke-dasharray="1,1"/><g><g stroke-dasharray="none"><path d="M-0.5,216.934L1.5,216.934L1.5,218.934L-0.5,218.934z" stroke-width="0" fill="none"/></g></g></g><g stroke="white" fill="none" stroke-opacity="0" stroke-width="3" stroke-dasharray="none" width="3" height="250.5" transform="scale(1,1) translate(11.267,8.267)"><rect width="3" height="250.5"/></g><g stroke="white" fill="none" stroke-opacity="0" stroke-width="3" stroke-dasharray="none" width="496.333" height="3" transform="scale(1,1) translate(8.267,11.267)"><rect width="496.333" height="3"/></g></g><g width="41.667" height="33.333" transform="scale(1,1) translate(962.5,454.167)"><g transform="scale(1,1) translate(0,0)" stroke="#545454" fill="#FFFFFF" fill-opacity="1" stroke-opacity="1"><path d="M20.833,0 L41.667,16.667 L20.833,33.333 L0,16.667 L20.833,0 z" stroke-width="1" stroke-dasharray="none"/></g></g><g width="33.333" height="58.333" transform="scale(1,1) translate(983.333,395.833)"><g fill="#545454" stroke="#545454" stroke-opacity="1" transform="scale(1,1) translate(0,0)"><path fill="none" stroke-width="1" stroke-dasharray="none" d="M33.333,0 A87.341,87.341 0 0,0 0,58.333"/><g><g stroke-dasharray="none"><path d="M6.308,49.102L0,58.333L-3.6,47.748" stroke-width="0.5" fill="none"/></g></g></g></g><g width="284.696" height="149.279" transform="scale(1,1) translate(698.637,487.5)"><g fill="#545454" stroke="#545454" stroke-opacity="1" transform="scale(1,1) translate(0,0)"><path fill="none" stroke-width="1" stroke-dasharray="none" d="M284.696,0 A417.897,417.897 0 0,0 0,149.279"/><g><g stroke-dasharray="none"><path d="M10.246,144.805L0,149.279L2.569,138.398" stroke-width="0.5" fill="none"/></g></g></g><g stroke-width="0" stroke-dasharray="none" fill="#FFFFFF" opacity="1" width="87.428" height="17.625" transform="scale(1,1) translate(83.706,37.358)"><rect width="87.428" height="17.625"/></g><g width="85.42777252197266" height="149.27919692646333" transform="scale(1,1) translate(84.706,38.358)"><text width="85.42777252197266" height="15.624999046325684" transform="scale(1,1) translate(0,0)" xml:space="preserve"><tspan xml:space="preserve" text-rendering="optimizeSpeed" font-size="13.88888888888889" font-weight="bold" font-style="normal" fill="#333333" x="0" text-anchor="start" y="12.5" textLength="85.42777252197266" style="font-family: Arial, Helvetica Neue, Helvetica, sans-serif;">To Data Base</tspan></text></g></g><g width="50" height="8.333" transform="scale(1,1) translate(1008.333,475)"><g fill="#545454" stroke="#545454" stroke-opacity="1" transform="scale(1,1) translate(0,0)"><path fill="none" stroke-width="1" stroke-dasharray="none" d="M0,0 A65.897,65.897 0 0,1 50,8.333"/><g><g stroke-dasharray="none"><path d="M44.039,-1.125L50,8.333L38.856,7.427" stroke-width="0.5" fill="none"/></g></g></g><g stroke-width="0" stroke-dasharray="none" fill="#FFFFFF" opacity="1" width="40.553" height="17.625" transform="scale(1,1) translate(5.557,-9.646)"><rect width="40.553" height="17.625"/></g><g width="38.55277633666992" height="15.624999046325684" transform="scale(1,1) translate(6.557,-8.646)"><text width="38.55277633666992" height="15.624999046325684" transform="scale(1,1) translate(0,0)" xml:space="preserve"><tspan xml:space="preserve" text-rendering="optimizeSpeed" font-size="13.88888888888889" font-weight="bold" font-style="normal" fill="#333333" x="0" text-anchor="start" y="12.5" textLength="38.55277633666992" style="font-family: Arial, Helvetica Neue, Helvetica, sans-serif;">To IOt</tspan></text></g></g><g width="360.69" height="104.075" transform="scale(1,1) translate(706.434,591.667)"><g fill="#545454" stroke="#545454" stroke-opacity="1" transform="scale(1,1) translate(0,0)"><path fill="none" stroke-width="1" stroke-dasharray="none" d="M360.69,0 A486.625,486.625 0 0,0 0,104.075"/><g><g stroke-dasharray="none"><path d="M10.932,101.732L0,104.075L4.685,93.923" stroke-width="0.5" fill="none"/></g></g></g></g><g width="98.667" height="50.167" transform="scale(1,1) translate(1334,483.25)"><g transform="scale(1,1) translate(0,0)" stroke="#7F7F7F" fill="#FFFFFF" fill-opacity="1" stroke-opacity="1"><path d="M0,10.033 a10.033,10.033 0 0,1 10.033,-10.033 l78.6,0 a10.033,10.033 0 0,1 10.033,10.033 l0,30.1 a10.033,10.033 0 0,1 -10.033,10.033 l-78.6,0 a10.033,10.033 0 0,1 -10.033,-10.033 z" stroke-width="1" stroke-dasharray="none"/></g><g width="87.90643337933332" height="39.40643337933333" transform="scale(1,1) translate(5.38,5.38)"><text width="87.90643337933332" height="16.66666603088379" transform="scale(1,1) translate(0,11.36988367422477)" xml:space="preserve"><tspan xml:space="preserve" text-rendering="optimizeSpeed" font-size="13.88888888888889" font-weight="normal" font-style="normal" fill="#000000" x="24.38" text-anchor="start" y="13.542" textLength="39.14696502685547" style="font-family: Verdana, Geneva, sans-serif;">verify</tspan></text></g></g><g width="19" height="19" transform="rotate(15,1141.667,425) scale(1,1) translate(1132.167,415.5)"><g width="19" height="19" transform="scale(1,1) translate(0,0)" stroke="#7F7F7F" stroke-width="1" stroke-dasharray="none" fill="#000000" fill-opacity="1" stroke-opacity="1" filter="url(#c80acb8e-f31e-4b13-903c-ed8f535818e1)"><ellipse rx="9.5" ry="9.5" cx="9.5" cy="9.5"/></g></g><g width="61.587" height="101.813" transform="scale(1,1) translate(1150.974,423.095)"><g fill="#545454" stroke="#545454" stroke-opacity="1" transform="scale(1,1) translate(0,0)"><path fill="none" stroke-width="1" stroke-dasharray="none" d="M0,0 A192.26,192.26 0 0,1 61.587,101.813"/><g><g stroke-dasharray="none"><path d="M64.125,90.925L61.587,101.813L54.399,93.25" stroke-width="0.5" fill="none"/></g></g></g><g stroke-width="0" stroke-dasharray="none" fill="#FFFFFF" opacity="1" width="85.333" height="17.625" transform="scale(1,1) translate(-3.798,37.209)"><rect width="85.333" height="17.625"/></g><g width="83.33332824707031" height="101.81253098489799" transform="scale(1,1) translate(-2.798,38.209)"><text width="83.33332824707031" height="15.624999046325684" transform="scale(1,1) translate(0,0)" xml:space="preserve"><tspan xml:space="preserve" text-rendering="optimizeSpeed" font-size="13.88888888888889" font-weight="bold" font-style="normal" fill="#333333" x="0" text-anchor="start" y="12.5" textLength="83.33332824707031" style="font-family: Arial, Helvetica Neue, Helvetica, sans-serif;">Administrate</tspan></text></g></g><g width="104.272" height="5.478" transform="scale(1,1) translate(1232.667,525)"><g fill="#545454" stroke="#545454" stroke-opacity="1" transform="scale(1,1) translate(0,0)"><path fill="none" stroke-width="1" stroke-dasharray="none" d="M0,0 A135.741,135.741 0 0,1 104.272,5.478"/><g><g stroke-dasharray="none"><path d="M97.353,-3.304L104.272,5.478L93.095,5.744" stroke-width="0.5" fill="none"/></g></g></g><g stroke-width="0" stroke-dasharray="none" fill="#FFFFFF" opacity="1" width="59.292" height="17.625" transform="scale(1,1) translate(23.038,-16.501)"><rect width="59.292" height="17.625"/></g><g width="57.29166793823242" height="15.624999046325684" transform="scale(1,1) translate(24.038,-15.501)"><text width="57.29166793823242" height="15.624999046325684" transform="scale(1,1) translate(0,0)" xml:space="preserve"><tspan xml:space="preserve" text-rendering="optimizeSpeed" font-size="13.88888888888889" font-weight="bold" font-style="normal" fill="#333333" x="0" text-anchor="start" y="12.5" textLength="57.29166793823242" style="font-family: Arial, Helvetica Neue, Helvetica, sans-serif;">Changes</tspan></text></g></g><g width="157.349" height="16.483" transform="scale(1,1) translate(1037.992,658.425)"><g fill="#545454" stroke="#545454" stroke-opacity="1" transform="scale(1,1) translate(0,0)"><path fill="none" stroke-width="1" stroke-dasharray="none" d="M157.349,0 A90.178,90.178 0 0,1 0,16.483"/><g><g stroke-dasharray="none"><path d="M1.699,27.533L0,16.483L9.86,21.754" stroke-width="0.5" fill="none"/></g></g></g><g stroke-width="0" stroke-dasharray="none" fill="#FFFFFF" opacity="1" width="81.167" height="17.625" transform="scale(1,1) translate(42.976,46.057)"><rect width="81.167" height="17.625"/></g><g width="79.16665649414062" height="55.35790735420119" transform="scale(1,1) translate(43.976,47.057)"><text width="79.16665649414062" height="15.624999046325684" transform="scale(1,1) translate(0,0)" xml:space="preserve"><tspan xml:space="preserve" text-rendering="optimizeSpeed" font-size="13.88888888888889" font-weight="bold" font-style="normal" fill="#333333" x="0" text-anchor="start" y="12.5" textLength="79.16665649414062" style="font-family: Arial, Helvetica Neue, Helvetica, sans-serif;">After LOgoff</tspan></text></g></g><g width="150.667" height="16.667" transform="scale(1,1) translate(1208,533.417)"><g fill="#545454" stroke="#545454" stroke-opacity="1" transform="scale(1,1) translate(0,0)"><path fill="none" stroke-width="1" stroke-dasharray="none" d="M150.667,0 A140.475,140.475 0 0,1 0,16.667"/><g><g stroke-dasharray="none"><path d="M6.806,25.537L0,16.667L11.18,16.544" stroke-width="0.5" fill="none"/></g></g></g><g stroke-width="0" stroke-dasharray="none" fill="#FFFFFF" opacity="1" width="56.167" height="17.625" transform="scale(1,1) translate(49.691,21.588)"><rect width="56.167" height="17.625"/></g><g width="54.16666793823242" height="31.250233487074183" transform="scale(1,1) translate(50.691,22.588)"><text width="54.16666793823242" height="15.624999046325684" transform="scale(1,1) translate(0,0)" xml:space="preserve"><tspan xml:space="preserve" text-rendering="optimizeSpeed" font-size="13.88888888888889" font-weight="bold" font-style="normal" fill="#333333" x="0" text-anchor="start" y="12.5" textLength="54.16666793823242" style="font-family: Arial, Helvetica Neue, Helvetica, sans-serif;">Updated</tspan></text></g></g><g width="98.667" height="50.167" transform="scale(1,1) translate(1134,499.917)"><g transform="scale(1,1) translate(0,0)" stroke="#7F7F7F" fill="#FFFFFF" fill-opacity="1" stroke-opacity="1"><path d="M0,10.033 a10.033,10.033 0 0,1 10.033,-10.033 l78.6,0 a10.033,10.033 0 0,1 10.033,10.033 l0,30.1 a10.033,10.033 0 0,1 -10.033,10.033 l-78.6,0 a10.033,10.033 0 0,1 -10.033,-10.033 z" stroke-width="1" stroke-dasharray="none"/></g><g width="87.90643337933332" height="39.40643337933333" transform="scale(1,1) translate(5.38,5.38)"><text width="87.90643337933332" height="33.33333206176758" transform="scale(1,1) translate(0,3.0365506587828754)" xml:space="preserve" style="user-select: none; -webkit-user-drag: none; -webkit-tap-highlight-color: rgba(0, 0, 0, 0);"><tspan xml:space="preserve" text-rendering="optimizeSpeed" font-size="13.88888888888889" font-weight="normal" font-style="normal" fill="#000000" x="27.807" text-anchor="start" y="13.542" textLength="32.291664123535156" style="font-family: Verdana, Geneva, sans-serif;">Data</tspan></text></g></g></g></svg>